<svg width="76" height="96" viewBox="0 0 76 96" fill="none" xmlns="http://www.w3.org/2000/svg">
<g filter="url(#filter0_dd_1347_738)">
<rect x="18" y="77.3545" width="59.3543" height="39.9997" rx="11" transform="rotate(-90 18 77.3545)" fill="#232732"/>
</g>
<path d="M47.6777 60.0433C47.6777 60.4968 47.5512 60.9416 47.3119 61.329C47.0727 61.7164 46.73 62.0315 46.3213 62.2398C45.9126 62.4481 45.4537 62.5416 44.9947 62.5101C44.5357 62.4786 44.0944 62.3233 43.7189 62.0612L26.1576 49.7882C25.8314 49.5608 25.565 49.2599 25.3806 48.9106C25.1961 48.5612 25.099 48.1735 25.0973 47.7797C25.0956 47.3859 25.1893 46.9973 25.3707 46.6464C25.5521 46.2955 25.8158 45.9924 26.1401 45.7623L43.7014 33.3062C44.076 33.0399 44.518 32.8806 44.9786 32.8461C45.4392 32.8115 45.9005 32.903 46.3117 33.1104C46.723 33.3178 47.0681 33.6331 47.3091 34.0215C47.5502 34.41 47.6777 34.8564 47.6777 35.3118L47.6777 60.0433Z" fill="#7733FF"/>
<defs>
<filter id="filter0_dd_1347_738" x="0" y="0" width="76" height="95.3545" filterUnits="userSpaceOnUse" color-interpolation-filters="sRGB">
<feFlood flood-opacity="0" result="BackgroundImageFix"/>
<feColorMatrix in="SourceAlpha" type="matrix" values="0 0 0 0 0 0 0 0 0 0 0 0 0 0 0 0 0 0 127 0" result="hardAlpha"/>
<feOffset dx="6" dy="6"/>
<feGaussianBlur stdDeviation="6"/>
<feComposite in2="hardAlpha" operator="out"/>
<feColorMatrix type="matrix" values="0 0 0 0 0 0 0 0 0 0 0 0 0 0 0 0 0 0 0.25 0"/>
<feBlend mode="overlay" in2="BackgroundImageFix" result="effect1_dropShadow_1347_738"/>
<feColorMatrix in="SourceAlpha" type="matrix" values="0 0 0 0 0 0 0 0 0 0 0 0 0 0 0 0 0 0 127 0" result="hardAlpha"/>
<feOffset dx="-6" dy="-6"/>
<feGaussianBlur stdDeviation="6"/>
<feComposite in2="hardAlpha" operator="out"/>
<feColorMatrix type="matrix" values="0 0 0 0 1 0 0 0 0 1 0 0 0 0 1 0 0 0 0.25 0"/>
<feBlend mode="overlay" in2="effect1_dropShadow_1347_738" result="effect2_dropShadow_1347_738"/>
<feBlend mode="normal" in="SourceGraphic" in2="effect2_dropShadow_1347_738" result="shape"/>
</filter>
</defs>
</svg>
